<svg width="18" height="25" viewBox="0 0 18 25" fill="none" xmlns="http://www.w3.org/2000/svg">
<path d="M9 24.8765C8.70833 24.8765 8.45833 24.7936 8.25 24.6277C8.04167 24.4618 7.88542 24.2441 7.78125 23.9745C7.38542 22.8133 6.88542 21.7247 6.28125 20.7087C5.69792 19.6927 4.875 18.5004 3.8125 17.1319C2.75 15.7633 1.88542 14.457 1.21875 13.2129C0.572917 11.9688 0.25 10.4655 0.25 8.70296C0.25 6.27693 1.09375 4.22414 2.78125 2.54458C4.48958 0.844287 6.5625 -0.00585938 9 -0.00585938C11.4375 -0.00585938 13.5 0.844287 15.1875 2.54458C16.8958 4.22414 17.75 6.27693 17.75 8.70296C17.75 10.5899 17.3854 12.1658 16.6562 13.4306C15.9479 14.6747 15.125 15.9085 14.1875 17.1319C13.0625 18.6248 12.2083 19.8689 11.625 20.8642C11.0625 21.8388 10.5938 22.8755 10.2188 23.9745C10.1146 24.2648 9.94792 24.4929 9.71875 24.6588C9.51042 24.8039 9.27083 24.8765 9 24.8765ZM9 20.4288C9.35417 19.7238 9.75 19.0291 10.1875 18.3449C10.6458 17.6606 11.3125 16.7483 12.1875 15.6078C13.0833 14.4466 13.8125 13.3788 14.375 12.4042C14.9583 11.4089 15.25 10.1752 15.25 8.70296C15.25 6.98193 14.6354 5.5201 13.4063 4.31745C12.1979 3.09407 10.7292 2.48238 9 2.48238C7.27083 2.48238 5.79167 3.09407 4.5625 4.31745C3.35417 5.5201 2.75 6.98193 2.75 8.70296C2.75 10.1752 3.03125 11.4089 3.59375 12.4042C4.17708 13.3788 4.91667 14.4466 5.8125 15.6078C6.6875 16.7483 7.34375 17.6606 7.78125 18.3449C8.23958 19.0291 8.64583 19.7238 9 20.4288ZM9 11.8133C9.875 11.8133 10.6146 11.5126 11.2187 10.9113C11.8229 10.3099 12.125 9.57385 12.125 8.70296C12.125 7.83208 11.8229 7.09598 11.2187 6.49465C10.6146 5.89333 9.875 5.59267 9 5.59267C8.125 5.59267 7.38542 5.89333 6.78125 6.49465C6.17708 7.09598 5.875 7.83208 5.875 8.70296C5.875 9.57385 6.17708 10.3099 6.78125 10.9113C7.38542 11.5126 8.125 11.8133 9 11.8133Z" fill="#1D1B20"/>
</svg>
