<?xml version="1.0" encoding="UTF-8" standalone="no"?>
<svg
   version="1.0"
   width="32"
   height="32"
   viewBox="0 0 24 24"
   preserveAspectRatio="xMidYMid"
   id="svg8"
   xmlns="http://www.w3.org/2000/svg"
   xmlns:svg="http://www.w3.org/2000/svg">
  <defs
     id="defs8" />
  <g
     transform="matrix(0.0033329,0,0,-0.0033329,-5.032679,29.278201)"
     fill="#000000"
     stroke="none"
     id="g8">
    <path
       d="m 4304,7782 c -203,-141 -407,-283 -452,-315 l -82,-57 V 5705 4000 h -49 c -26,0 -76,-3 -109,-6 l -62,-7 -2,1042 -3,1041 -457,-352 -458,-353 v -217 -218 h 100 100 v -480 -480 h -100 -100 v -45 c 0,-38 -3,-45 -22,-49 -13,-3 -61,-12 -108,-21 -133,-25 -341,-81 -427,-116 -120,-47 -167,-80 -106,-72 16,2 262,21 548,43 286,22 624,50 750,62 229,23 240,23 1890,23 1280,0 1690,-3 1790,-13 72,-7 292,-28 490,-48 198,-19 454,-44 568,-55 114,-12 211,-18 214,-15 4,3 -4,17 -17,31 -68,73 -254,138 -525,185 -66,11 -130,23 -142,25 l -23,5 v 563 563 l -382,341 c -211,188 -395,353 -410,368 l -28,26 v -296 -295 h 130 130 v -490 -490 h -130 -130 v -106 -107 l -37,7 c -21,3 -59,6 -85,6 h -48 v 1148 l -1,1147 -517,351 -517,351 -3,-1494 -2,-1493 h -400 -400 l 2,1180 3,1180 h -157 -158 v 520 520 h 158 157 v 315 c 0,173 -2,315 -5,314 -3,0 -172,-116 -376,-257 z"
       id="path1" />
    <path
       d="m 4972,3454 c -104,-27 -193,-100 -233,-188 -30,-66 -26,-187 7,-255 46,-91 98,-123 367,-226 143,-54 187,-99 187,-188 0,-56 -31,-104 -90,-137 -38,-21 -58,-25 -125,-25 -67,0 -88,5 -131,27 -60,32 -120,96 -160,173 -26,49 -32,55 -61,55 h -33 v -144 -144 l 33,-11 c 17,-6 82,-22 142,-36 189,-43 368,-30 482,35 149,85 207,287 126,432 -48,84 -127,131 -370,222 -135,51 -193,107 -193,189 0,42 34,94 78,120 19,11 60,22 96,24 119,10 216,-44 272,-151 26,-50 32,-56 62,-56 h 32 v 135 135 h -39 c -22,0 -75,7 -118,15 -97,19 -261,18 -331,-1 z"
       id="path2" />
    <path
       d="m 7081,3459 c -301,-59 -440,-240 -440,-574 -1,-228 85,-402 238,-484 228,-121 558,-82 709,84 88,96 128,209 138,390 10,185 -36,343 -132,445 -107,114 -331,175 -513,139 z m 226,-104 c 62,-31 99,-78 129,-161 45,-122 53,-365 18,-522 -26,-117 -87,-203 -166,-236 -48,-20 -158,-21 -206,-1 -83,35 -147,127 -170,245 -31,159 -22,387 20,509 26,75 80,140 140,170 64,31 167,29 235,-4 z"
       id="path3" />
    <path
       d="m 1510,3422 c 0,-25 5,-30 41,-41 84,-25 79,3 79,-472 0,-269 -4,-427 -10,-440 -12,-22 -61,-49 -90,-49 -16,0 -20,-6 -20,-32 v -33 l 307,5 c 284,5 313,8 366,28 93,34 156,73 198,120 44,50 59,94 59,167 -1,123 -81,198 -258,245 l -64,17 59,21 c 33,12 87,39 120,61 49,32 64,48 78,85 35,92 0,223 -75,276 -16,11 -55,31 -87,42 -54,21 -79,22 -380,26 l -323,3 z m 573,-75 c 48,-31 62,-72 62,-179 0,-83 -3,-101 -21,-125 -35,-46 -108,-77 -191,-82 l -73,-3 v 207 207 l 98,-4 c 72,-2 106,-8 125,-21 z m 0,-491 c 24,-12 47,-35 65,-65 24,-40 27,-56 27,-131 0,-160 -62,-220 -227,-220 h -88 v 221 221 l 93,-4 c 61,-3 105,-10 130,-22 z"
       id="path4" />
    <path
       d="m 2917,3443 c -6,-11 -139,-372 -253,-688 -52,-143 -102,-271 -112,-285 -10,-14 -38,-32 -60,-40 -37,-13 -42,-18 -42,-45 v -30 l 155,3 155,3 v 28 c 0,24 -5,30 -30,35 -19,3 -34,15 -42,31 -10,23 -7,43 26,141 l 37,114 h 172 172 l 41,-113 c 22,-61 44,-120 48,-129 10,-21 -23,-40 -84,-48 -41,-5 -45,-7 -45,-33 0,-15 3,-27 8,-27 4,0 115,0 248,0 h 240 l -3,26 c -2,20 -12,29 -41,39 -21,7 -46,20 -56,29 -10,9 -98,236 -197,506 l -179,490 h -77 c -42,0 -79,-3 -81,-7 z m 92,-475 c 28,-86 51,-160 51,-165 0,-4 -63,-8 -140,-8 -89,0 -139,4 -137,10 2,6 35,103 73,218 l 69,208 17,-53 c 9,-29 39,-124 67,-210 z"
       id="path5" />
    <path
       d="m 3490,3416 c 0,-31 2,-34 41,-40 23,-4 51,-17 65,-31 l 24,-24 v -344 c 0,-379 4,-411 62,-497 65,-98 163,-139 343,-147 142,-6 217,6 302,47 71,35 115,82 152,160 l 26,55 5,357 5,356 25,27 c 13,14 44,31 67,37 40,10 43,13 43,44 v 34 h -195 -195 v -34 c 0,-31 3,-34 44,-45 27,-6 53,-21 65,-37 20,-26 21,-38 21,-349 0,-364 -5,-397 -68,-467 -45,-50 -101,-76 -180,-84 -83,-9 -155,10 -204,54 -75,68 -73,55 -76,460 l -3,362 29,29 c 16,16 45,33 65,36 34,7 37,10 37,41 v 34 h -250 -250 z"
       id="path6" />
    <path
       d="m 5596,3404 c -3,-26 -6,-89 -6,-140 v -94 h 40 c 37,0 40,2 60,48 12,26 33,59 48,75 30,31 106,57 169,57 h 43 v -431 c 0,-289 -4,-437 -11,-451 -12,-23 -66,-48 -104,-48 -22,0 -25,-4 -25,-32 v -33 l 265,3 265,3 v 29 c 0,25 -4,30 -25,30 -38,0 -90,25 -109,51 -14,21 -16,72 -16,451 v 428 h 53 c 73,0 148,-24 179,-57 29,-32 58,-85 58,-108 0,-11 11,-15 40,-15 h 40 v 43 c 0,23 -3,86 -7,140 l -6,97 h -472 -472 z"
       id="path7" />
    <path
       d="m 7822,3423 c 2,-22 10,-29 35,-34 18,-3 44,-14 58,-23 l 25,-17 -2,-441 -3,-442 -34,-23 c -19,-13 -45,-23 -57,-23 -20,0 -24,-5 -24,-30 v -29 l 255,-3 255,-3 v 33 c 0,28 -3,32 -25,32 -38,0 -92,25 -104,48 -7,13 -11,91 -11,201 v 181 h 63 c 129,-1 180,-27 214,-111 19,-47 25,-54 52,-57 l 31,-3 v 59 c 0,32 -3,127 -7,210 l -6,152 h -27 c -24,0 -29,-5 -39,-46 -22,-88 -85,-124 -213,-124 h -68 v 200 200 l 25,16 c 53,35 274,4 347,-47 15,-11 39,-44 54,-74 24,-51 29,-55 61,-55 h 34 l -6,88 c -3,48 -8,111 -11,140 l -5,52 h -435 -435 z"
       id="path8" />
  </g>
</svg>
